<svg xmlns="http://www.w3.org/2000/svg" viewBox="0 0 800 500" preserveAspectRatio="xMidYMid slice">
<defs>
<linearGradient id="bg" x1="0" y1="0" x2="1" y2="1">
<stop offset="0" stop-color="#0a1020"/><stop offset="0.55" stop-color="#0b1224"/><stop offset="1" stop-color="#070b16"/>
</linearGradient>
<radialGradient id="glow" cx="0.78" cy="0.28" r="0.7">
<stop offset="0" stop-color="#3aa0ff" stop-opacity="0.28"/><stop offset="1" stop-color="#3aa0ff" stop-opacity="0"/>
</radialGradient>
<linearGradient id="acc" x1="0" y1="0" x2="1" y2="0">
<stop offset="0" stop-color="#3aa0ff" stop-opacity="0"/><stop offset="1" stop-color="#3aa0ff" stop-opacity="0.9"/>
</linearGradient>
</defs>
<rect width="800" height="500" fill="url(#bg)"/>
<rect width="800" height="500" fill="url(#glow)"/>
<g stroke="#3aa0ff" stroke-opacity="0.06" stroke-width="1">
<line x1="0" y1="0" x2="0" y2="500"/><line x1="50" y1="0" x2="50" y2="500"/><line x1="100" y1="0" x2="100" y2="500"/><line x1="150" y1="0" x2="150" y2="500"/><line x1="200" y1="0" x2="200" y2="500"/><line x1="250" y1="0" x2="250" y2="500"/><line x1="300" y1="0" x2="300" y2="500"/><line x1="350" y1="0" x2="350" y2="500"/><line x1="400" y1="0" x2="400" y2="500"/><line x1="450" y1="0" x2="450" y2="500"/><line x1="500" y1="0" x2="500" y2="500"/><line x1="550" y1="0" x2="550" y2="500"/><line x1="600" y1="0" x2="600" y2="500"/><line x1="650" y1="0" x2="650" y2="500"/><line x1="700" y1="0" x2="700" y2="500"/><line x1="750" y1="0" x2="750" y2="500"/><line x1="800" y1="0" x2="800" y2="500"/>
<line x1="0" y1="0" x2="800" y2="0"/><line x1="0" y1="50" x2="800" y2="50"/><line x1="0" y1="100" x2="800" y2="100"/><line x1="0" y1="150" x2="800" y2="150"/><line x1="0" y1="200" x2="800" y2="200"/><line x1="0" y1="250" x2="800" y2="250"/><line x1="0" y1="300" x2="800" y2="300"/><line x1="0" y1="350" x2="800" y2="350"/><line x1="0" y1="400" x2="800" y2="400"/><line x1="0" y1="450" x2="800" y2="450"/><line x1="0" y1="500" x2="800" y2="500"/>
</g>
<g transform="translate(560 250) scale(11)" stroke="#3aa0ff" stroke-opacity="0.10" stroke-width="1.4" fill="none" stroke-linecap="round" stroke-linejoin="round">
<g transform="translate(-12 -12)"><path d="m7.5 4.27 9 5.15"/><path d="M21 8a2 2 0 0 0-1-1.73l-7-4a2 2 0 0 0-2 0l-7 4A2 2 0 0 0 3 8v8a2 2 0 0 0 1 1.73l7 4a2 2 0 0 0 2 0l7-4A2 2 0 0 0 21 16Z"/><path d="m3.3 7 8.7 5 8.7-5"/><path d="M12 22V12"/></g>
</g>
<rect x="0" y="488" width="800" height="12" fill="url(#acc)" opacity="0.5"/>
<circle cx="120" cy="120" r="3" fill="#3aa0ff" fill-opacity="0.5"/>
<circle cx="180" cy="90" r="2" fill="#3aa0ff" fill-opacity="0.35"/>
<circle cx="90" cy="200" r="2" fill="#3aa0ff" fill-opacity="0.3"/>
</svg>