<svg xmlns="http://www.w3.org/2000/svg" viewBox="0 0 800 400" preserveAspectRatio="xMidYMid slice">
<defs>
  <linearGradient id="bg" x1="0" y1="0" x2="1" y2="1"><stop offset="0" stop-color="#0b1c3a"/><stop offset=".55" stop-color="#091532"/><stop offset="1" stop-color="#05080f"/></linearGradient>
  <radialGradient id="glow" cx="0.32" cy="0.26" r="0.75"><stop offset="0" stop-color="#3aa0ff" stop-opacity=".42"/><stop offset="1" stop-color="#3aa0ff" stop-opacity="0"/></radialGradient>
  <radialGradient id="vig" cx="0.5" cy="0.5" r="0.75"><stop offset=".6" stop-color="#000" stop-opacity="0"/><stop offset="1" stop-color="#000" stop-opacity=".35"/></radialGradient>
  <pattern id="grid" width="34" height="34" patternUnits="userSpaceOnUse"><path d="M34 0H0V34" fill="none" stroke="#3aa0ff" stroke-opacity=".06" stroke-width="1"/></pattern>
  <radialGradient id="scope" cx="0.5" cy="0.5" r="0.5"><stop offset="0" stop-color="#5cc0ff" stop-opacity=".14"/><stop offset="1" stop-color="#5cc0ff" stop-opacity="0"/></radialGradient>
  <linearGradient id="sweep" x1="0" y1="0" x2="1" y2="-1"><stop offset="0" stop-color="#7fe0ff" stop-opacity=".55"/><stop offset="1" stop-color="#7fe0ff" stop-opacity="0"/></linearGradient>
</defs>
<rect width="800" height="400" fill="url(#bg)"/>
<rect width="800" height="400" fill="url(#grid)"/>
<rect width="800" height="400" fill="url(#glow)"/>
<line x1="0" y1="330" x2="800" y2="330" stroke="#5cc0ff" stroke-opacity=".25" stroke-width="2"/>
<g transform="translate(556,200)">
  <circle r="170" fill="url(#scope)"/>
  <g fill="none" stroke="#5cc0ff" stroke-opacity=".5" stroke-width="1.6"><circle r="50"/><circle r="100"/><circle r="150"/></g>
  <g stroke="#5cc0ff" stroke-opacity=".32" stroke-width="1.4"><line x1="-158" y1="0" x2="158" y2="0"/><line x1="0" y1="-158" x2="0" y2="158"/><line x1="-112" y1="-112" x2="112" y2="112"/><line x1="-112" y1="112" x2="112" y2="-112"/></g>
  <path d="M0 0 L112 -112 A158 158 0 0 1 158 0 Z" fill="url(#sweep)"/>
  <line x1="0" y1="0" x2="113" y2="-113" stroke="#aef0ff" stroke-opacity=".85" stroke-width="2"/>
  <circle cx="74" cy="-88" r="5" fill="#aef0ff"/>
  <circle cx="-60" cy="44" r="4" fill="#7fe0ff" fill-opacity=".8"/>
  <circle cx="108" cy="60" r="3.5" fill="#7fe0ff" fill-opacity=".7"/>
  <circle r="6" fill="#aef0ff"/>
</g>
<g transform="translate(138,225)">
  <line x1="0" y1="0" x2="0" y2="100" stroke="#bcd6ff" stroke-opacity=".55" stroke-width="4"/>
  <line x1="-24" y1="100" x2="24" y2="100" stroke="#bcd6ff" stroke-opacity=".55" stroke-width="4"/>
  <circle cx="0" cy="0" r="6" fill="#aef0ff"/>
  <g fill="none" stroke="#7fd0ff" stroke-opacity=".55" stroke-width="2.4"><path d="M14 -14 A20 20 0 0 1 14 14"/><path d="M27 -27 A38 38 0 0 1 27 27"/><path d="M40 -40 A56 56 0 0 1 40 40"/></g>
</g>
<rect width="800" height="400" fill="url(#vig)"/>
</svg>
