<svg xmlns="http://www.w3.org/2000/svg" viewBox="0 0 800 400" preserveAspectRatio="xMidYMid slice">
<defs>
  <linearGradient id="bg" x1="0" y1="0" x2="1" y2="1"><stop offset="0" stop-color="#0b1c3a"/><stop offset=".55" stop-color="#091532"/><stop offset="1" stop-color="#05080f"/></linearGradient>
  <radialGradient id="glow" cx="0.72" cy="0.26" r="0.75"><stop offset="0" stop-color="#3aa0ff" stop-opacity=".42"/><stop offset="1" stop-color="#3aa0ff" stop-opacity="0"/></radialGradient>
  <linearGradient id="jetfill" x1="0" y1="0" x2="0" y2="1"><stop offset="0" stop-color="#dbe9ff" stop-opacity=".30"/><stop offset="1" stop-color="#9cc4ff" stop-opacity=".10"/></linearGradient>
  <radialGradient id="vig" cx="0.5" cy="0.5" r="0.75"><stop offset=".6" stop-color="#000" stop-opacity="0"/><stop offset="1" stop-color="#000" stop-opacity=".35"/></radialGradient>
  <pattern id="grid" width="34" height="34" patternUnits="userSpaceOnUse"><path d="M34 0H0V34" fill="none" stroke="#3aa0ff" stroke-opacity=".06" stroke-width="1"/></pattern>
</defs>
<rect width="800" height="400" fill="url(#bg)"/>
<rect width="800" height="400" fill="url(#grid)"/>
<rect width="800" height="400" fill="url(#glow)"/>
<g fill="none" stroke="#5cc0ff" stroke-opacity=".5" stroke-width="2">
  <path d="M70 92 V70 H92"/><path d="M708 70 H730 V92"/>
  <path d="M730 308 V330 H708"/><path d="M92 330 H70 V308"/></g>
   <g>
    <circle cx="540" cy="200" r="134" fill="none" stroke="#3aa0ff" stroke-opacity=".15" stroke-width="1.5"/>
    <circle cx="540" cy="200" r="118" fill="#0a1730" fill-opacity=".55" stroke="#5cc0ff" stroke-opacity=".55" stroke-width="2"/>
    <g stroke="#7fd0ff" stroke-opacity=".7" stroke-width="2"><line x1="648.0" y1="200.0" x2="658.0" y2="200.0"/><line x1="633.5" y1="254.0" x2="642.2" y2="259.0"/><line x1="594.0" y1="293.5" x2="599.0" y2="302.2"/><line x1="540.0" y1="308.0" x2="540.0" y2="318.0"/><line x1="486.0" y1="293.5" x2="481.0" y2="302.2"/><line x1="446.5" y1="254.0" x2="437.8" y2="259.0"/><line x1="432.0" y1="200.0" x2="422.0" y2="200.0"/><line x1="446.5" y1="146.0" x2="437.8" y2="141.0"/><line x1="486.0" y1="106.5" x2="481.0" y2="97.8"/><line x1="540.0" y1="92.0" x2="540.0" y2="82.0"/><line x1="594.0" y1="106.5" x2="599.0" y2="97.8"/><line x1="633.5" y1="146.0" x2="642.2" y2="141.0"/></g>
    <line x1="422" y1="200" x2="658" y2="200" stroke="#7fd0ff" stroke-opacity=".8" stroke-width="2"/>
    <g stroke="#9cc4ff" stroke-opacity=".5" stroke-width="2"><line x1="494" y1="156" x2="586" y2="156"/><line x1="512" y1="178" x2="568" y2="178"/><line x1="512" y1="222" x2="568" y2="222"/><line x1="494" y1="244" x2="586" y2="244"/></g>
    <path d="M506 200 l22 0 l12 12 l12 -12 l22 0" fill="none" stroke="#ffd36b" stroke-width="3" stroke-linejoin="round"/>
    <circle cx="540" cy="200" r="3" fill="#ffd36b"/>
  </g>
   <g transform="translate(215,205) rotate(28) scale(.62)" fill="url(#jetfill)" stroke="#bcd6ff" stroke-opacity=".5" stroke-width="2"><path d="M0 -150L7 -112L9 -40L11 -28L120 34L120 48L15 22L13 86L13 92L54 122L54 132L11 108L7 138L0 144L-7 138L-11 108L-54 132L-54 122L-13 92L-13 86L-15 22L-120 48L-120 34L-11 -28L-9 -40L-7 -112Z"/></g>
   <g font-family="Segoe UI, Arial, sans-serif" fill="#7fd0ff" fill-opacity=".55" font-size="13" letter-spacing="2"><text x="92" y="104">SIM&#8226;READY</text><text x="92" y="300">TRAINING DEVICE</text></g>
<rect width="800" height="400" fill="url(#vig)"/>
</svg>