<svg xmlns="http://www.w3.org/2000/svg" viewBox="0 0 800 400" preserveAspectRatio="xMidYMid slice">
<defs>
  <linearGradient id="bg" x1="0" y1="0" x2="1" y2="1"><stop offset="0" stop-color="#0b1c3a"/><stop offset=".55" stop-color="#091532"/><stop offset="1" stop-color="#05080f"/></linearGradient>
  <radialGradient id="glow" cx="0.78" cy="0.22" r="0.75"><stop offset="0" stop-color="#3aa0ff" stop-opacity=".42"/><stop offset="1" stop-color="#3aa0ff" stop-opacity="0"/></radialGradient>
  <linearGradient id="jetfill" x1="0" y1="0" x2="0" y2="1"><stop offset="0" stop-color="#dbe9ff" stop-opacity=".30"/><stop offset="1" stop-color="#9cc4ff" stop-opacity=".10"/></linearGradient>
  <radialGradient id="vig" cx="0.5" cy="0.5" r="0.75"><stop offset=".6" stop-color="#000" stop-opacity="0"/><stop offset="1" stop-color="#000" stop-opacity=".35"/></radialGradient>
  <pattern id="grid" width="34" height="34" patternUnits="userSpaceOnUse"><path d="M34 0H0V34" fill="none" stroke="#3aa0ff" stroke-opacity=".06" stroke-width="1"/></pattern>
</defs>
<rect width="800" height="400" fill="url(#bg)"/>
<rect width="800" height="400" fill="url(#grid)"/>
<rect width="800" height="400" fill="url(#glow)"/>
<g transform="translate(300,210) rotate(-18) scale(1.05)" fill="url(#jetfill)" stroke="#bcd6ff" stroke-opacity=".45" stroke-width="1.5"><path d="M0 -150L7 -112L9 -40L11 -28L120 34L120 48L15 22L13 86L13 92L54 122L54 132L11 108L7 138L0 144L-7 138L-11 108L-54 132L-54 122L-13 92L-13 86L-15 22L-120 48L-120 34L-11 -28L-9 -40L-7 -112Z"/></g>
   <g opacity=".5"><circle cx="640" cy="170" r="120" fill="none" stroke="#3aa0ff" stroke-opacity=".18" stroke-width="1.5"/><ellipse cx="640" cy="170" rx="120" ry="46" fill="none" stroke="#3aa0ff" stroke-opacity=".14" stroke-width="1.5"/><ellipse cx="640" cy="170" rx="46" ry="120" fill="none" stroke="#3aa0ff" stroke-opacity=".14" stroke-width="1.5"/></g><g stroke="#5cc0ff" stroke-opacity=".5" stroke-width="1.5" fill="none"><line x1="560" y1="120" x2="700" y2="150"/><line x1="560" y1="120" x2="590" y2="200"/><line x1="640" y1="90" x2="660" y2="210"/><line x1="640" y1="90" x2="720" y2="250"/><line x1="700" y1="150" x2="590" y2="200"/><line x1="660" y1="210" x2="720" y2="250"/></g><g fill="#7fd0ff"><circle cx="560" cy="120" r="4"/><circle cx="640" cy="90" r="4"/><circle cx="700" cy="150" r="4"/><circle cx="660" cy="210" r="4"/><circle cx="590" cy="200" r="4"/><circle cx="720" cy="250" r="4"/></g>
   <g fill="none" stroke="#5cc0ff" stroke-opacity=".55" stroke-width="2"><path d="M172.5 313.0L150.0 326.0L127.5 313.0L127.5 287.0L150.0 274.0L172.5 287.0Z"/><path d="M225.6 339.0L210.0 348.0L194.4 339.0L194.4 321.0L210.0 312.0L225.6 321.0Z"/><path d="M133.0 355.5L120.0 363.0L107.0 355.5L107.0 340.5L120.0 333.0L133.0 340.5Z"/></g>
<rect width="800" height="400" fill="url(#vig)"/>
</svg>