<svg xmlns="http://www.w3.org/2000/svg" viewBox="0 0 800 400" preserveAspectRatio="xMidYMid slice">
<defs>
  <linearGradient id="bg" x1="0" y1="0" x2="1" y2="1"><stop offset="0" stop-color="#0b1c3a"/><stop offset=".55" stop-color="#091532"/><stop offset="1" stop-color="#05080f"/></linearGradient>
  <radialGradient id="glow" cx="0.3" cy="0.24" r="0.75"><stop offset="0" stop-color="#3aa0ff" stop-opacity=".42"/><stop offset="1" stop-color="#3aa0ff" stop-opacity="0"/></radialGradient>
  <linearGradient id="jetfill" x1="0" y1="0" x2="0" y2="1"><stop offset="0" stop-color="#dbe9ff" stop-opacity=".30"/><stop offset="1" stop-color="#9cc4ff" stop-opacity=".10"/></linearGradient>
  <radialGradient id="vig" cx="0.5" cy="0.5" r="0.75"><stop offset=".6" stop-color="#000" stop-opacity="0"/><stop offset="1" stop-color="#000" stop-opacity=".35"/></radialGradient>
  <pattern id="grid" width="34" height="34" patternUnits="userSpaceOnUse"><path d="M34 0H0V34" fill="none" stroke="#3aa0ff" stroke-opacity=".06" stroke-width="1"/></pattern>
</defs>
<rect width="800" height="400" fill="url(#bg)"/>
<rect width="800" height="400" fill="url(#grid)"/>
<rect width="800" height="400" fill="url(#glow)"/>
<line x1="0" y1="300" x2="800" y2="300" stroke="#5cc0ff" stroke-opacity=".35" stroke-width="2"/>
   <g stroke="#5cc0ff" stroke-opacity=".30" stroke-width="6" stroke-dasharray="26 22"><line x1="0" y1="330" x2="800" y2="330"/></g>
   <g transform="translate(470,150) rotate(8) scale(1.0)" fill="url(#jetfill)" stroke="#bcd6ff" stroke-opacity=".45" stroke-width="1.5"><path d="M0 -150L7 -112L9 -40L11 -28L120 34L120 48L15 22L13 86L13 92L54 122L54 132L11 108L7 138L0 144L-7 138L-11 108L-54 132L-54 122L-13 92L-13 86L-15 22L-120 48L-120 34L-11 -28L-9 -40L-7 -112Z"/></g>
   <g transform="translate(150,262)" fill="#5cc0ff" fill-opacity=".22" stroke="#7fd0ff" stroke-opacity=".7" stroke-width="2"><path d="M4 34 L4 16 L30 16 L36 6 L70 6 L74 16 L96 16 L96 34 Z M16 16 L16 8 L34 8 L40 16 Z"/><circle cx="26" cy="34" r="8" fill="#0a1730" stroke="#7fd0ff"/><circle cx="82" cy="34" r="8" fill="#0a1730" stroke="#7fd0ff"/></g>
   <g fill="none" stroke="#5cc0ff" stroke-opacity=".5" stroke-width="2"><circle cx="300" cy="250" r="13"/><path d="M300 243v14M293 250h14"/><rect x="350" y="238" width="24" height="24" rx="3"/></g>
<rect width="800" height="400" fill="url(#vig)"/>
</svg>