<?xml version="1.0" encoding="UTF-8"?>
<svg id="Layer_1" data-name="Layer 1" xmlns="http://www.w3.org/2000/svg" viewBox="0 0 219 130">
  <defs>
    <style>
      .cls-1 {
        fill: #fff;
      }

      .cls-1, .cls-2 {
        stroke-width: 0px;
      }

      .cls-2 {
        fill: #6cbd4a;
      }
    </style>
  </defs>
  <g>
    <path class="cls-1" d="M40.93,99.2c.02-.08.07-.12.14-.12h.76c.08,0,.13.04.15.12l2.71,7.69c.02.08,0,.12-.08.12h-.82c-.08,0-.13-.04-.15-.12l-.61-1.72h-3.2l-.61,1.72c-.03.08-.08.12-.15.12h-.82c-.08,0-.1-.04-.08-.12l2.75-7.69ZM42.7,104.2l-1.25-3.59h-.02l-1.26,3.59h2.53Z"/>
    <path class="cls-1" d="M47.24,107.06c-.49,0-.84-.12-1.05-.36-.21-.24-.31-.61-.31-1.11v-6.39c0-.08.04-.12.12-.12h.75c.08,0,.12.04.12.12v6.33c0,.23.04.39.13.48.09.09.23.13.43.13h.22c.08,0,.12.04.12.12v.68c0,.08-.04.12-.12.12h-.4Z"/>
    <path class="cls-1" d="M51.05,107.13c-.27,0-.52-.03-.76-.08-.23-.05-.44-.12-.63-.2-.19-.08-.36-.17-.51-.27-.15-.1-.29-.2-.4-.3-.05-.05-.05-.11,0-.16l.48-.51c.05-.05.11-.05.16,0,.21.18.46.33.76.45.3.12.62.19.96.19.41,0,.72-.08.92-.24.2-.16.3-.36.3-.61,0-.22-.07-.39-.22-.52-.14-.13-.43-.22-.87-.26l-.59-.06c-.55-.06-.97-.23-1.25-.49-.28-.26-.42-.62-.42-1.08,0-.54.18-.95.54-1.25.36-.3.87-.45,1.53-.45.41,0,.79.06,1.12.17.34.12.62.26.86.44.06.04.07.09.02.16l-.4.5c-.05.05-.1.06-.16.02-.18-.12-.4-.22-.67-.31s-.55-.14-.83-.14c-.35,0-.61.07-.79.22-.18.14-.27.33-.27.55s.08.4.23.52c.16.12.44.2.86.24l.58.06c.57.05.99.22,1.27.49.28.27.41.63.41,1.08,0,.55-.19.99-.58,1.33-.39.33-.95.5-1.68.5Z"/>
    <path class="cls-1" d="M58.21,107c-.08,0-.12-.04-.12-.12v-.49h-.01c-.13.21-.33.38-.61.52-.27.14-.62.21-1.05.21-.26,0-.51-.04-.74-.11-.23-.07-.43-.18-.59-.32-.17-.14-.3-.32-.4-.53-.1-.21-.15-.46-.15-.74,0-.59.19-1.03.58-1.31.38-.28.92-.42,1.6-.42h1.27s.07-.02.07-.07v-.4c0-.39-.09-.66-.28-.83s-.54-.25-1.06-.25c-.32,0-.58.04-.79.11-.21.07-.4.17-.56.29-.07.05-.12.05-.16-.01l-.31-.54c-.03-.06-.02-.12.02-.16.21-.16.47-.29.79-.4.32-.1.69-.15,1.11-.15.79,0,1.35.15,1.68.44.33.29.49.78.49,1.46v3.69c0,.08-.04.12-.12.12h-.68ZM56.66,106.29c.44,0,.79-.09,1.04-.29.25-.19.37-.46.37-.81v-.62s-.02-.07-.07-.07h-1.12c-.49,0-.85.07-1.06.22s-.33.37-.33.69c0,.29.1.5.3.65.2.15.49.22.87.22Z"/>
    <path class="cls-1" d="M62.22,107.06c-.49,0-.84-.12-1.05-.36-.21-.24-.31-.61-.31-1.11v-6.39c0-.08.04-.12.12-.12h.75c.08,0,.12.04.12.12v6.33c0,.23.04.39.13.48.09.09.23.13.43.13h.22c.08,0,.12.04.12.12v.68c0,.08-.04.12-.12.12h-.4Z"/>
    <path class="cls-1" d="M67.48,107c-.08,0-.12-.04-.12-.12v-.49h-.01c-.13.21-.33.38-.61.52-.27.14-.62.21-1.05.21-.26,0-.51-.04-.74-.11-.23-.07-.43-.18-.59-.32-.17-.14-.3-.32-.4-.53-.1-.21-.15-.46-.15-.74,0-.59.19-1.03.58-1.31.38-.28.92-.42,1.6-.42h1.27s.07-.02.07-.07v-.4c0-.39-.09-.66-.28-.83s-.54-.25-1.06-.25c-.32,0-.58.04-.79.11-.21.07-.4.17-.56.29-.07.05-.12.05-.16-.01l-.31-.54c-.03-.06-.02-.12.02-.16.21-.16.47-.29.79-.4.32-.1.69-.15,1.11-.15.79,0,1.35.15,1.68.44.33.29.49.78.49,1.46v3.69c0,.08-.04.12-.12.12h-.68ZM65.92,106.29c.44,0,.79-.09,1.04-.29.25-.19.37-.46.37-.81v-.62s-.02-.07-.07-.07h-1.12c-.49,0-.85.07-1.06.22s-.33.37-.33.69c0,.29.1.5.3.65.2.15.49.22.87.22Z"/>
    <path class="cls-1" d="M77.27,107c-.08,0-.12-.04-.12-.12v-3.26c0-.45-.1-.8-.31-1.05-.21-.25-.52-.37-.94-.37-.37,0-.68.12-.92.37-.24.24-.36.58-.36,1v3.32c0,.08-.04.12-.12.12h-.75c-.08,0-.12-.04-.12-.12v-3.26c0-.45-.1-.8-.31-1.05-.21-.25-.52-.37-.94-.37-.38,0-.69.12-.93.37-.24.24-.36.58-.36,1v3.32c0,.08-.04.12-.12.12h-.75c-.08,0-.12-.04-.12-.12v-5.34c0-.08.04-.12.12-.12h.75c.08,0,.12.04.12.12v.51h.01c.13-.22.33-.4.59-.54.26-.14.59-.22.97-.22s.71.08.98.23c.28.15.49.37.65.65h.01c.19-.27.44-.49.73-.64.29-.16.65-.23,1.08-.23.65,0,1.15.19,1.48.57.34.38.51.89.51,1.53v3.49c0,.08-.04.12-.12.12h-.75Z"/>
    <path class="cls-1" d="M84.85,99.2c.02-.08.07-.12.14-.12h.76c.08,0,.13.04.15.12l2.71,7.69c.02.08,0,.12-.08.12h-.82c-.08,0-.13-.04-.15-.12l-.61-1.72h-3.2l-.61,1.72c-.03.08-.08.12-.15.12h-.82c-.08,0-.1-.04-.08-.12l2.75-7.69ZM86.62,104.2l-1.25-3.59h-.02l-1.26,3.59h2.53Z"/>
    <path class="cls-1" d="M91.93,107.13c-.57,0-1.04-.13-1.43-.39-.38-.26-.65-.63-.81-1.12-.06-.18-.11-.38-.14-.59-.03-.22-.05-.49-.05-.82s.01-.6.04-.82c.03-.22.07-.42.13-.59.16-.49.43-.86.81-1.12.38-.26.84-.38,1.38-.38s1,.13,1.38.39c.38.26.65.63.81,1.11.03.09.06.19.08.29.02.1.04.21.05.33.02.12.03.27.03.42,0,.16.01.34.01.55,0,.08-.04.12-.13.12h-3.53s-.07.02-.07.07c0,.16,0,.28.02.38.02.1.04.2.07.29.11.33.28.57.52.73.24.16.54.24.88.24s.62-.06.85-.17c.23-.12.43-.26.58-.44.06-.06.12-.07.17-.02l.48.43c.05.05.06.1.01.16-.23.28-.52.51-.89.69-.37.18-.8.27-1.29.27ZM93.17,103.72s.07-.02.07-.07c0-.25-.03-.46-.08-.62-.09-.28-.25-.49-.47-.64-.22-.15-.49-.23-.81-.23s-.59.08-.81.23c-.22.15-.38.36-.47.64-.05.16-.08.37-.08.62,0,.05.02.07.07.07h2.59Z"/>
    <path class="cls-1" d="M95.93,107c-.08,0-.12-.04-.12-.12v-5.34c0-.08.04-.12.12-.12h.75c.08,0,.12.04.12.12v.57h.01c.12-.24.31-.44.55-.59.24-.15.55-.23.93-.23.23,0,.44.04.63.11.2.07.37.18.51.31.05.05.06.11.02.16l-.43.57c-.05.06-.1.07-.16.02-.13-.09-.27-.15-.41-.2s-.29-.07-.45-.07c-.43,0-.73.15-.92.45-.19.3-.28.69-.28,1.18v3.05c0,.08-.04.12-.12.12h-.75Z"/>
    <path class="cls-1" d="M102.63,107.13c-.54,0-1.01-.13-1.39-.4-.38-.26-.65-.63-.81-1.11-.06-.19-.11-.4-.14-.61-.03-.21-.05-.48-.05-.81s.02-.59.05-.8c.03-.21.08-.41.14-.61.16-.48.43-.85.81-1.11.38-.26.85-.39,1.39-.39s1.01.13,1.39.39c.38.26.65.63.81,1.11.06.19.11.4.14.61.03.21.05.48.05.8s-.02.6-.05.81c-.03.21-.08.42-.14.61-.16.47-.42.84-.81,1.11-.38.26-.85.4-1.39.4ZM102.63,106.22c.31,0,.57-.08.79-.23.22-.15.37-.37.47-.65.05-.16.08-.32.1-.48.02-.17.03-.39.03-.66s0-.49-.03-.65c-.02-.16-.05-.32-.1-.48-.09-.28-.25-.49-.47-.65-.22-.15-.48-.23-.79-.23s-.57.08-.79.23c-.22.15-.37.37-.47.65-.05.16-.08.31-.1.48-.02.16-.03.38-.03.65s0,.49.03.66c.02.17.05.33.1.48.09.28.25.49.47.65.22.15.48.23.79.23Z"/>
    <path class="cls-1" d="M108.51,107.13c-.27,0-.52-.03-.76-.08-.23-.05-.44-.12-.63-.2-.19-.08-.36-.17-.51-.27-.15-.1-.29-.2-.4-.3-.05-.05-.05-.11,0-.16l.48-.51c.05-.05.11-.05.16,0,.21.18.46.33.76.45.3.12.62.19.96.19.41,0,.72-.08.92-.24.2-.16.3-.36.3-.61,0-.22-.07-.39-.22-.52-.14-.13-.43-.22-.87-.26l-.59-.06c-.55-.06-.97-.23-1.25-.49-.28-.26-.42-.62-.42-1.08,0-.54.18-.95.54-1.25.36-.3.87-.45,1.53-.45.41,0,.79.06,1.12.17.34.12.62.26.86.44.06.04.07.09.02.16l-.4.5c-.05.05-.1.06-.16.02-.18-.12-.4-.22-.67-.31s-.55-.14-.83-.14c-.35,0-.61.07-.79.22-.18.14-.27.33-.27.55s.08.4.23.52c.16.12.44.2.86.24l.58.06c.57.05.99.22,1.27.49.28.27.41.63.41,1.08,0,.55-.19.99-.58,1.33-.39.33-.95.5-1.68.5Z"/>
    <path class="cls-1" d="M112.42,109.1c-.08,0-.12-.04-.12-.12v-7.44c0-.08.04-.12.12-.12h.75c.08,0,.12.04.12.12v.52h.01c.13-.23.32-.41.58-.55.25-.14.59-.22,1.01-.22.49,0,.9.11,1.22.34.33.23.56.56.7,1,.08.23.13.46.16.69.03.24.04.53.04.88s-.01.64-.04.89c-.03.24-.08.47-.16.7-.14.44-.37.78-.7,1-.33.23-.73.34-1.22.34-.42,0-.76-.07-1.01-.22-.25-.15-.44-.33-.58-.56h-.01v2.63c0,.08-.04.12-.12.12h-.75ZM114.64,106.22c.62,0,1.03-.28,1.22-.85.05-.15.08-.31.1-.5.02-.19.03-.41.03-.66s0-.47-.03-.65c-.02-.19-.05-.36-.1-.51-.19-.56-.6-.84-1.22-.84s-1.05.28-1.23.84c-.05.14-.08.3-.1.48-.02.18-.03.41-.03.69s0,.51.03.69c.02.18.05.34.1.47.19.57.6.85,1.23.85Z"/>
    <path class="cls-1" d="M121.94,107c-.08,0-.12-.04-.12-.12v-.49h-.01c-.13.21-.33.38-.61.52-.27.14-.62.21-1.05.21-.26,0-.51-.04-.74-.11-.23-.07-.43-.18-.59-.32-.17-.14-.3-.32-.4-.53-.1-.21-.15-.46-.15-.74,0-.59.19-1.03.58-1.31.38-.28.92-.42,1.6-.42h1.27s.07-.02.07-.07v-.4c0-.39-.09-.66-.28-.83s-.54-.25-1.06-.25c-.32,0-.58.04-.79.11-.21.07-.4.17-.56.29-.07.05-.12.05-.16-.01l-.31-.54c-.03-.06-.02-.12.02-.16.21-.16.47-.29.79-.4.32-.1.69-.15,1.11-.15.79,0,1.35.15,1.68.44.33.29.49.78.49,1.46v3.69c0,.08-.04.12-.12.12h-.68ZM120.39,106.29c.44,0,.79-.09,1.04-.29.25-.19.37-.46.37-.81v-.62s-.02-.07-.07-.07h-1.12c-.49,0-.85.07-1.06.22s-.33.37-.33.69c0,.29.1.5.3.65.2.15.49.22.87.22Z"/>
    <path class="cls-1" d="M124.27,104.21c0-.31.02-.58.05-.81.03-.23.07-.43.13-.6.16-.49.43-.86.82-1.12.39-.26.85-.38,1.39-.38.43,0,.8.08,1.12.25.32.17.58.4.79.69.04.06.03.12-.03.16l-.51.42c-.06.05-.12.04-.16-.01-.16-.2-.33-.35-.51-.45-.18-.1-.41-.15-.69-.15-.3,0-.56.07-.78.22-.22.14-.37.36-.47.66-.05.15-.08.31-.1.49-.02.18-.03.39-.03.64s0,.46.03.65c.02.18.05.35.1.49.09.3.25.51.47.66.22.14.48.22.78.22.28,0,.51-.05.69-.15.18-.1.35-.25.51-.45.05-.05.1-.06.16-.01l.51.42c.06.05.07.1.03.16-.2.3-.46.53-.79.69-.32.17-.7.25-1.12.25-.54,0-1-.13-1.39-.38-.39-.26-.66-.63-.82-1.12-.05-.17-.1-.37-.13-.6-.03-.23-.05-.5-.05-.82Z"/>
    <path class="cls-1" d="M132.19,107.13c-.57,0-1.04-.13-1.43-.39-.38-.26-.65-.63-.81-1.12-.06-.18-.11-.38-.14-.59-.03-.22-.05-.49-.05-.82s.01-.6.04-.82c.03-.22.07-.42.13-.59.16-.49.43-.86.81-1.12.38-.26.84-.38,1.38-.38s1,.13,1.38.39c.38.26.65.63.81,1.11.03.09.06.19.08.29.02.1.04.21.05.33.02.12.03.27.03.42,0,.16.01.34.01.55,0,.08-.04.12-.13.12h-3.53s-.07.02-.07.07c0,.16,0,.28.02.38.02.1.04.2.07.29.11.33.28.57.52.73.24.16.54.24.88.24s.62-.06.85-.17c.23-.12.43-.26.58-.44.06-.06.12-.07.17-.02l.48.43c.05.05.06.1.01.16-.23.28-.52.51-.89.69-.37.18-.8.27-1.29.27ZM133.42,103.72s.07-.02.07-.07c0-.25-.03-.46-.08-.62-.09-.28-.25-.49-.47-.64-.22-.15-.49-.23-.81-.23s-.59.08-.81.23c-.22.15-.38.36-.47.64-.05.16-.08.37-.08.62,0,.05.02.07.07.07h2.59Z"/>
    <path class="cls-1" d="M138.88,99.2c0-.08.04-.12.12-.12h.81c.08,0,.12.04.12.12v7.69c0,.08-.04.12-.12.12h-.81c-.08,0-.12-.04-.12-.12v-7.69Z"/>
    <path class="cls-1" d="M145.47,107c-.08,0-.12-.04-.12-.12v-3.26c0-.45-.1-.8-.31-1.05-.21-.25-.52-.37-.94-.37-.38,0-.69.12-.93.37-.24.24-.36.58-.36,1v3.32c0,.08-.04.12-.12.12h-.75c-.08,0-.12-.04-.12-.12v-5.34c0-.08.04-.12.12-.12h.75c.08,0,.12.04.12.12v.51h.01c.13-.22.33-.4.59-.54.26-.14.59-.22.97-.22.61,0,1.08.19,1.42.57.34.38.51.89.51,1.53v3.49c0,.08-.04.12-.12.12h-.75Z"/>
    <path class="cls-1" d="M151.68,107c-.08,0-.12-.04-.12-.12v-.54h-.01c-.13.23-.32.41-.58.56-.25.15-.59.22-1.01.22-.49,0-.9-.11-1.22-.34-.33-.23-.56-.56-.7-1-.08-.23-.13-.46-.16-.7-.03-.24-.04-.54-.04-.89s.01-.64.04-.88c.03-.24.08-.47.16-.69.14-.44.37-.78.7-1,.33-.23.73-.34,1.22-.34.42,0,.75.07,1.01.22.25.14.44.33.58.55h.01v-2.86c0-.08.04-.12.12-.12h.75c.08,0,.12.04.12.12v7.69c0,.08-.04.12-.12.12h-.75ZM150.2,106.22c.64,0,1.05-.28,1.23-.85.05-.13.08-.29.1-.47.02-.18.03-.41.03-.69s0-.51-.03-.69c-.02-.18-.05-.34-.1-.48-.19-.56-.6-.84-1.23-.84s-1.03.28-1.22.84c-.05.16-.08.33-.1.51-.02.19-.03.4-.03.65s0,.48.03.66c.02.19.05.35.1.5.19.57.6.85,1.22.85Z"/>
    <path class="cls-1" d="M157.96,107c-.08,0-.12-.04-.12-.12v-.52h-.01c-.15.23-.35.42-.6.56-.25.14-.56.21-.93.21-.61,0-1.09-.19-1.43-.58-.34-.38-.51-.89-.51-1.53v-3.48c0-.08.04-.12.12-.12h.75c.08,0,.12.04.12.12v3.25c0,.46.1.81.3,1.06.2.25.51.37.93.37.38,0,.69-.12.91-.37.23-.25.34-.58.34-1v-3.31c0-.08.04-.12.12-.12h.75c.08,0,.12.04.12.12v5.34c0,.08-.04.12-.12.12h-.75Z"/>
    <path class="cls-1" d="M162.65,107.13c-.27,0-.52-.03-.76-.08-.23-.05-.44-.12-.63-.2-.19-.08-.36-.17-.51-.27-.15-.1-.29-.2-.4-.3-.05-.05-.05-.11,0-.16l.48-.51c.05-.05.11-.05.16,0,.21.18.46.33.76.45.3.12.62.19.96.19.41,0,.72-.08.92-.24.2-.16.3-.36.3-.61,0-.22-.07-.39-.22-.52-.14-.13-.43-.22-.87-.26l-.59-.06c-.55-.06-.97-.23-1.25-.49-.28-.26-.42-.62-.42-1.08,0-.54.18-.95.54-1.25.36-.3.87-.45,1.53-.45.41,0,.79.06,1.12.17.34.12.62.26.86.44.06.04.07.09.02.16l-.4.5c-.05.05-.1.06-.16.02-.18-.12-.4-.22-.67-.31s-.55-.14-.83-.14c-.35,0-.61.07-.79.22-.18.14-.27.33-.27.55s.08.4.23.52c.16.12.44.2.86.24l.58.06c.57.05.99.22,1.27.49.28.27.41.63.41,1.08,0,.55-.19.99-.58,1.33-.39.33-.95.5-1.68.5Z"/>
    <path class="cls-1" d="M168.05,107.06c-.54,0-.93-.13-1.16-.38-.23-.25-.34-.65-.34-1.21v-3.19s-.02-.07-.07-.07h-.47c-.08,0-.12-.04-.12-.12v-.56c0-.08.04-.12.12-.12h.47s.07-.02.07-.07v-1.57c0-.08.04-.12.12-.12h.75c.08,0,.12.04.12.12v1.57s.02.07.07.07h.88c.08,0,.12.04.12.12v.56c0,.08-.04.12-.12.12h-.88s-.07.02-.07.07v3.16c0,.28.06.47.17.56.11.1.29.15.54.15h.24c.08,0,.12.04.12.12v.68c0,.08-.04.12-.12.12h-.43Z"/>
    <path class="cls-1" d="M170.23,107c-.08,0-.12-.04-.12-.12v-5.34c0-.08.04-.12.12-.12h.75c.08,0,.12.04.12.12v.57h.01c.12-.24.31-.44.55-.59.24-.15.55-.23.93-.23.23,0,.44.04.63.11.2.07.37.18.51.31.05.05.06.11.02.16l-.43.57c-.05.06-.1.07-.16.02-.13-.09-.27-.15-.41-.2s-.29-.07-.45-.07c-.43,0-.73.15-.92.45-.19.3-.28.69-.28,1.18v3.05c0,.08-.04.12-.12.12h-.75Z"/>
    <path class="cls-1" d="M174.98,100.17c-.08,0-.12-.04-.12-.12v-.85c0-.08.04-.12.12-.12h.79c.08,0,.12.04.12.12v.85c0,.08-.04.12-.12.12h-.79ZM175,107c-.08,0-.12-.04-.12-.12v-5.34c0-.08.04-.12.12-.12h.75c.08,0,.12.04.12.12v5.34c0,.08-.04.12-.12.12h-.75Z"/>
    <path class="cls-1" d="M179.86,107.13c-.57,0-1.04-.13-1.43-.39-.38-.26-.65-.63-.81-1.12-.06-.18-.11-.38-.14-.59-.03-.22-.05-.49-.05-.82s.01-.6.04-.82c.03-.22.07-.42.13-.59.16-.49.43-.86.81-1.12.38-.26.84-.38,1.38-.38s1,.13,1.38.39c.38.26.65.63.81,1.11.03.09.06.19.08.29.02.1.04.21.05.33.02.12.03.27.03.42,0,.16.01.34.01.55,0,.08-.04.12-.13.12h-3.53s-.07.02-.07.07c0,.16,0,.28.02.38.02.1.04.2.07.29.11.33.28.57.52.73.24.16.54.24.88.24s.62-.06.85-.17c.23-.12.43-.26.58-.44.06-.06.12-.07.17-.02l.48.43c.05.05.06.1.01.16-.23.28-.52.51-.89.69-.37.18-.8.27-1.29.27ZM181.09,103.72s.07-.02.07-.07c0-.25-.03-.46-.08-.62-.09-.28-.25-.49-.47-.64-.22-.15-.49-.23-.81-.23s-.59.08-.81.23c-.22.15-.38.36-.47.64-.05.16-.08.37-.08.62,0,.05.02.07.07.07h2.59Z"/>
    <path class="cls-1" d="M185.66,107.13c-.27,0-.52-.03-.76-.08-.23-.05-.44-.12-.63-.2-.19-.08-.36-.17-.51-.27-.15-.1-.29-.2-.4-.3-.05-.05-.05-.11,0-.16l.48-.51c.05-.05.11-.05.16,0,.21.18.46.33.76.45.3.12.62.19.96.19.41,0,.72-.08.92-.24.2-.16.3-.36.3-.61,0-.22-.07-.39-.22-.52-.14-.13-.43-.22-.87-.26l-.59-.06c-.55-.06-.97-.23-1.25-.49-.28-.26-.42-.62-.42-1.08,0-.54.18-.95.54-1.25.36-.3.87-.45,1.53-.45.41,0,.79.06,1.12.17.34.12.62.26.86.44.06.04.07.09.02.16l-.4.5c-.05.05-.1.06-.16.02-.18-.12-.4-.22-.67-.31s-.55-.14-.83-.14c-.35,0-.61.07-.79.22-.18.14-.27.33-.27.55s.08.4.23.52c.16.12.44.2.86.24l.58.06c.57.05.99.22,1.27.49.28.27.41.63.41,1.08,0,.55-.19.99-.58,1.33-.39.33-.95.5-1.68.5Z"/>
  </g>
  <g>
    <rect class="cls-1" x="178.32" y="36.56" width="9.6" height="34.08"/>
    <polygon class="cls-1" points="102.07 58.57 88.39 58.57 82.16 66.34 106.29 66.34 108.75 70.67 119.65 70.67 101.19 36.56 94.68 44.68 102.07 58.57"/>
    <path class="cls-1" d="M71.21,45.82v-9.28h-32.53c-2.71.07-4.01.84-5.38,2.22-1.37,1.41-2.22,3.31-2.22,5.38,0,4.26,3.02,6.08,6.26,7.7l19.45,9.6h-25.71v9.18h33.73l6.4-11.99-26.97-12.8h26.97Z"/>
    <polygon class="cls-1" points="174.35 36.56 174.35 36.56 162.43 36.56 148.92 54.95 135.34 36.56 123.39 36.56 123.39 70.67 132.99 70.67 132.99 49.53 148.96 71.13 164.78 49.57 164.78 70.67 174.42 70.67 174.42 36.56 174.35 36.56"/>
    <polygon class="cls-2" points="61.73 84.53 62.68 84.53 101.19 36.56 87.3 36.56 61.73 84.53"/>
    <polygon class="cls-2" points="101.19 20.9 89.34 32.75 101.19 32.75 101.19 20.9"/>
  </g>
  <g>
    <path class="cls-1" d="M87.84,78.43c.04-.14.12-.2.24-.2h1.32c.14,0,.22.07.26.2l4.73,13.4c.04.14,0,.2-.14.2h-1.42c-.14,0-.22-.07-.26-.2l-1.06-3h-5.58l-1.06,3c-.05.14-.14.2-.26.2h-1.42c-.14,0-.18-.07-.14-.2l4.79-13.4ZM90.92,87.14l-2.17-6.25h-.04l-2.19,6.25h4.41Z"/>
    <path class="cls-1" d="M96.59,78.43c0-.14.07-.2.21-.2h8.32c.14,0,.2.07.2.2v1.28c0,.14-.07.2-.2.2h-6.58c-.08,0-.12.04-.12.12v4.06c0,.08.04.12.12.12h5.58c.14,0,.2.07.2.2v1.28c0,.14-.07.2-.2.2h-5.58c-.08,0-.12.04-.12.12v4.2c0,.08.04.12.12.12h6.58c.14,0,.2.07.2.2v1.28c0,.14-.07.2-.2.2h-8.32c-.14,0-.21-.07-.21-.2v-13.4Z"/>
    <path class="cls-1" d="M116.02,92.03c-.12,0-.21-.07-.27-.2l-2.75-5.64h-3.03c-.08,0-.12.04-.12.12v5.52c0,.14-.07.2-.21.2h-1.42c-.14,0-.21-.07-.21-.2v-13.4c0-.14.07-.2.2-.2h5c.65,0,1.24.09,1.77.28.53.19.98.46,1.36.8.38.35.67.76.88,1.26.21.49.32,1.04.32,1.63,0,.93-.24,1.73-.73,2.38-.49.65-1.15,1.11-1.99,1.38l2.94,5.83c.04.07.05.13.02.17-.03.05-.07.07-.14.07h-1.64ZM113.18,84.5c.81,0,1.44-.2,1.88-.6.45-.4.67-.96.67-1.7s-.22-1.3-.67-1.7c-.45-.4-1.07-.6-1.88-.6h-3.22c-.08,0-.12.04-.12.12v4.34c0,.08.04.12.12.12h3.22Z"/>
    <path class="cls-1" d="M125.11,92.26c-1.16,0-2.15-.27-2.95-.81-.81-.54-1.38-1.35-1.74-2.42-.07-.2-.13-.41-.17-.63-.05-.22-.08-.47-.11-.76-.03-.29-.05-.64-.06-1.05-.01-.41-.02-.89-.02-1.46s0-1.06.02-1.46c.01-.41.03-.75.06-1.05.03-.29.06-.54.11-.76.05-.22.1-.43.17-.63.35-1.07.93-1.87,1.74-2.42.81-.54,1.79-.81,2.95-.81s2.17.27,2.97.81c.81.54,1.38,1.35,1.74,2.42.07.2.13.41.17.63.05.22.08.47.11.76.03.29.05.64.06,1.05.01.41.02.89.02,1.46s0,1.06-.02,1.46c-.01.41-.03.75-.06,1.05-.03.29-.06.54-.11.76-.05.22-.1.43-.17.63-.35,1.07-.93,1.87-1.74,2.42-.81.54-1.8.81-2.97.81ZM125.11,90.57c.77,0,1.4-.18,1.89-.53.49-.35.84-.86,1.06-1.52.04-.12.08-.27.11-.46.03-.18.07-.41.1-.68.03-.27.06-.59.07-.95.01-.37.02-.8.02-1.3s0-.93-.02-1.3c-.01-.37-.04-.68-.07-.95-.03-.27-.07-.5-.1-.68-.03-.18-.07-.33-.11-.46-.22-.66-.57-1.17-1.06-1.52-.49-.35-1.12-.53-1.89-.53s-1.4.18-1.88.53c-.48.35-.83.86-1.05,1.52-.04.12-.08.27-.11.46-.03.18-.07.41-.1.68-.03.27-.06.59-.07.95-.01.37-.02.8-.02,1.3s0,.93.02,1.3c.01.37.04.68.07.95.03.27.07.5.1.68.03.18.07.33.11.46.22.66.56,1.17,1.05,1.52.48.35,1.11.53,1.88.53Z"/>
    <path class="cls-1" d="M137.29,92.26c-.49,0-.97-.05-1.44-.14-.47-.09-.92-.22-1.34-.38-.42-.16-.81-.34-1.16-.55-.35-.21-.66-.43-.91-.66-.09-.09-.1-.2-.02-.3l.89-1.06c.08-.09.18-.1.28-.02.45.35,1,.68,1.66.97.66.3,1.39.45,2.19.45.96,0,1.71-.22,2.24-.65.53-.43.8-1,.8-1.71,0-.3-.05-.57-.14-.81-.09-.24-.25-.46-.48-.65-.22-.19-.52-.35-.88-.49-.37-.14-.83-.24-1.38-.3l-.69-.1c-2.71-.37-4.06-1.64-4.06-3.82,0-.61.1-1.16.31-1.66.21-.5.51-.93.9-1.28.39-.35.87-.62,1.42-.81.55-.19,1.18-.28,1.87-.28.81,0,1.59.12,2.32.36.74.24,1.36.55,1.88.92.11.08.12.18.04.28l-.69,1.12c-.08.09-.18.11-.28.04-.57-.35-1.12-.61-1.64-.78-.53-.17-1.09-.25-1.68-.25-.85,0-1.5.21-1.95.62-.45.41-.67.95-.67,1.61,0,.58.22,1.06.65,1.43.43.37,1.18.63,2.25.78l.67.1c1.35.19,2.37.6,3.05,1.22.68.62,1.02,1.5,1.02,2.64,0,.61-.11,1.17-.31,1.67-.21.51-.53.94-.95,1.31-.43.37-.95.65-1.58.86-.63.21-1.36.31-2.18.31Z"/>
    <path class="cls-1" d="M145.31,92.03c-.14,0-.21-.07-.21-.2v-13.4c0-.14.07-.2.2-.2h4.91c.66,0,1.27.1,1.81.29.54.2,1,.47,1.38.83.38.36.67.79.88,1.3.21.51.31,1.07.31,1.7s-.1,1.19-.31,1.7c-.21.51-.5.94-.88,1.3-.38.36-.84.64-1.38.83-.54.2-1.14.29-1.8.29h-3.18c-.08,0-.12.04-.12.12v5.24c0,.14-.07.2-.21.2h-1.42ZM150.13,84.79c.85,0,1.51-.22,1.98-.65.47-.43.71-1.03.71-1.79s-.24-1.35-.71-1.79c-.47-.43-1.13-.65-1.98-.65h-3.07c-.08,0-.12.04-.12.12v4.63c0,.08.04.12.12.12h3.07Z"/>
    <path class="cls-1" d="M159.36,78.43c.04-.14.12-.2.24-.2h1.32c.14,0,.22.07.26.2l4.73,13.4c.04.14,0,.2-.14.2h-1.42c-.14,0-.22-.07-.26-.2l-1.06-3h-5.58l-1.06,3c-.05.14-.14.2-.26.2h-1.42c-.14,0-.18-.07-.14-.2l4.79-13.4ZM162.44,87.14l-2.17-6.25h-.04l-2.19,6.25h4.41Z"/>
    <path class="cls-1" d="M167.58,89.01c-.07-.2-.13-.41-.17-.62-.05-.21-.08-.46-.11-.75-.03-.29-.05-.64-.06-1.05-.01-.41-.02-.89-.02-1.46s0-1.06.02-1.46c.01-.41.03-.75.06-1.05.03-.29.06-.54.11-.75.05-.21.1-.42.17-.62.35-1.1.92-1.91,1.71-2.45.78-.53,1.75-.8,2.88-.8,1.03,0,1.93.24,2.69.72.76.48,1.34,1.17,1.74,2.06.04.12.01.21-.08.26l-1.22.59c-.14.07-.23.03-.28-.1-.27-.54-.63-.98-1.08-1.33-.45-.35-1.04-.52-1.77-.52s-1.37.18-1.83.53c-.46.35-.81.85-1.04,1.5-.04.15-.08.31-.11.48-.03.17-.06.38-.08.63-.02.25-.04.56-.05.93-.01.37-.02.83-.02,1.37s0,1,.02,1.37c.01.37.03.68.05.93.02.25.05.46.08.64.03.18.07.33.11.47.23.65.58,1.15,1.04,1.5.46.35,1.07.53,1.83.53s1.32-.17,1.77-.52c.45-.35.81-.79,1.08-1.33.05-.14.15-.17.28-.1l1.22.59c.09.05.12.14.08.26-.39.89-.97,1.58-1.74,2.06-.76.48-1.66.72-2.69.72-1.14,0-2.1-.27-2.88-.8-.79-.53-1.35-1.35-1.71-2.45Z"/>
    <path class="cls-1" d="M179.19,78.43c0-.14.07-.2.21-.2h8.32c.14,0,.2.07.2.2v1.28c0,.14-.07.2-.2.2h-6.58c-.08,0-.12.04-.12.12v4.06c0,.08.04.12.12.12h5.58c.14,0,.2.07.2.2v1.28c0,.14-.07.2-.2.2h-5.58c-.08,0-.12.04-.12.12v4.2c0,.08.04.12.12.12h6.58c.14,0,.2.07.2.2v1.28c0,.14-.07.2-.2.2h-8.32c-.14,0-.21-.07-.21-.2v-13.4Z"/>
  </g>
</svg>