<svg xmlns="http://www.w3.org/2000/svg" viewBox="0 0 470.92 178.23"><defs><style>.cls-1{fill:#006646;}.cls-2{fill:#fff;}.cls-3{fill:#54565a;}</style></defs><g id="Layer_2" data-name="Layer 2"><g id="Layer_1-2" data-name="Layer 1"><rect class="cls-1" width="470.92" height="119.64"/><path class="cls-2" d="M45.21,69.79H64c.52,3.48,1.46,5,2.82,6s3.39,1.43,6.09,1.43a10.43,10.43,0,0,0,5.33-1.16,3.6,3.6,0,0,0,1.94-3.21q0-3.27-8.13-5.31l-2.49-.61Q62.9,65.21,59,63.8a27,27,0,0,1-5.74-2.63,16.24,16.24,0,0,1-5.21-6,17.41,17.41,0,0,1-1.74-7.92q0-9,6.74-14.06t18.55-5.1q11.6,0,18.26,4.88c4.44,3.25,6.94,7.92,7.51,14.82H79c-.3-2.6-1.08-3.92-2.35-4.79a9.48,9.48,0,0,0-5.41-1.31,8.37,8.37,0,0,0-4.62,1,3.51,3.51,0,0,0-1.51,3.11q0,3,7.93,5c.46.14,3,.76,4.53,1.15q10.5,2.66,13.73,4.82a17.3,17.3,0,0,1,5.84,6,16.51,16.51,0,0,1,1.84,8q0,10-7,15.32t-20,5.35q-12,0-19-5.35C48.4,82.6,45.78,77.58,45.21,69.79Z"/><path class="cls-2" d="M175,69.79h18.79c.52,3.48,1.46,5,2.82,6s3.39,1.43,6.09,1.43A10.41,10.41,0,0,0,208,76.06,3.6,3.6,0,0,0,210,72.85q0-3.27-8.13-5.31l-2.49-.61q-6.66-1.73-10.6-3.13A27.2,27.2,0,0,1,183,61.17a16.33,16.33,0,0,1-5.21-6,17.54,17.54,0,0,1-1.73-7.92q0-9,6.74-14.06t18.54-5.1Q213,28.12,219.6,33c4.44,3.25,7,7.92,7.52,14.82H208.78c-.3-2.6-1.09-3.92-2.35-4.79A9.5,9.5,0,0,0,201,41.72a8.37,8.37,0,0,0-4.62,1,3.49,3.49,0,0,0-1.51,3.11q0,3,7.92,5c.47.14,3,.76,4.54,1.15q10.5,2.66,13.72,4.82a17.22,17.22,0,0,1,5.84,6,16.51,16.51,0,0,1,1.84,8q0,10-7,15.32t-20,5.35q-12,0-19-5.35C178.19,82.6,175.57,77.58,175,69.79Z"/><path class="cls-2" d="M272,66.52h18.3Q289.43,78.4,281.89,85t-20.47,6.56Q247,91.52,238.67,83t-8.3-23.22q0-14.72,8.21-23.21T261,28.12q13.06,0,20.57,6.31t8.39,18h-18.5a10.29,10.29,0,0,0-3-7q-2.58-2.36-7.24-2.35-5.67,0-8.51,4.15t-2.84,12.52q0,8.21,3,12.42t8.87,4.21a9.77,9.77,0,0,0,7.13-2.58A11.41,11.41,0,0,0,272,66.52Z"/><path class="cls-2" d="M320.91,89.84S311.64,52.79,311,49.69c0,1.82.24,40.15.24,40.15H293.75V29.67h25.38l8.56,38.85,8.56-38.85h25.39V89.84H344.16l.24-40.15-9.93,40.15Z"/><path class="cls-2" d="M131.09,89.84s-9.27-37.05-9.93-40.15c0,1.82.25,40.15.25,40.15H103.93V29.67h25.38l8.56,38.85,8.56-38.85h25.39V89.84H154.33l.25-40.15-9.93,40.15Z"/><path class="cls-2" d="M407.41,66.52h18.3Q424.89,78.4,417.33,85t-20.46,6.56q-14.46,0-22.76-8.48t-8.29-23.22q0-14.72,8.21-23.21t22.39-8.49q13.06,0,20.57,6.31t8.39,18H406.87q-.4-4.62-3-7t-7.23-2.35q-5.67,0-8.51,4.15t-2.84,12.52q0,8.21,3,12.42t8.86,4.21a9.75,9.75,0,0,0,7.13-2.58A11.36,11.36,0,0,0,407.41,66.52Z"/><path class="cls-3" d="M4.56,151.11a4.44,4.44,0,0,0,0-8.88,4.44,4.44,0,0,0,0,8.88Zm0-6.51a2.07,2.07,0,0,1,0,4.14,2.07,2.07,0,0,1,0-4.14Z"/><path class="cls-3" d="M2.87,141a1.35,1.35,0,0,0,1.33-1.37,1.33,1.33,0,0,0-1.33-1.35,1.35,1.35,0,0,0-1.37,1.35A1.37,1.37,0,0,0,2.87,141Z"/><path class="cls-3" d="M6.29,141a1.36,1.36,0,0,0,1.35-1.37,1.36,1.36,0,0,0-2.72,0A1.37,1.37,0,0,0,6.29,141Z"/><path class="cls-3" d="M18.64,146.14c0-3-1.21-4-5.06-4H12.11v2.43h2c1.43,0,2.07.41,2.07,1.71v2.12H10.61v2.56h8Z"/><path class="cls-3" d="M24.21,153.06a10.28,10.28,0,0,1-2.75-.44L21,154.94a10,10,0,0,0,3.11.48,5.44,5.44,0,0,0,3.76-1.23,5,5,0,0,0,1.4-3.93v-6.91a8.87,8.87,0,0,0-3.84-.92c-2.92,0-4.72,1.74-4.72,4.31s1.78,4.2,5,4.2h1.09C26.79,152.36,26,153.06,24.21,153.06Zm1.16-4.68c-1.31,0-2.18-.67-2.18-1.83s.89-1.83,2.13-1.83a3.75,3.75,0,0,1,1.54.34v3.32Z"/><path class="cls-3" d="M67.9,147.92a6,6,0,0,1-2.39.46,4.91,4.91,0,0,1-2-.33,4,4,0,0,0,0-.7,4.38,4.38,0,1,0-8.76,0,4,4,0,0,0,0,.7,4.91,4.91,0,0,1-1.95.33h-.77c-.66,0-1-.09-1.16-.34a6.79,6.79,0,0,1-1.23-2.75c-.77-2.64-1.73-3.73-4.17-3.73a5.83,5.83,0,0,0-3.62,1.3l1.33,1.69a3.82,3.82,0,0,1,2.09-.7,1.68,1.68,0,0,1,1.7,1,9.47,9.47,0,0,1,.5,1.42,4.91,4.91,0,0,0,1,2.1H39.47v-2.24c0-3-1.21-4-5.06-4H32.94v2.43h2c1.43,0,2.06.41,2.06,1.71v2.12h-5.6v2.56H53a5.79,5.79,0,0,0,2.79-.68,4.55,4.55,0,0,0,6.82,0,5.8,5.8,0,0,0,2.85.68h0a6.39,6.39,0,0,0,4.8-2V138.47H67.9Zm-8.69,1.48a2.05,2.05,0,1,1,2-2.05A1.91,1.91,0,0,1,59.21,149.4Z"/><rect class="cls-3" x="73.33" y="138.47" width="2.43" height="12.47"/><path class="cls-3" d="M91.28,146.14c0-3-1.22-4-5.06-4H84.75v2.43h2c1.44,0,2.07.41,2.07,1.71v2.12H83.24v2.56h8Z"/><rect class="cls-3" x="93.97" y="138.47" width="2.43" height="12.47"/><path class="cls-3" d="M119.62,147.35a4.38,4.38,0,1,0-8.76,0,4,4,0,0,0,0,.69,5.67,5.67,0,0,1-2,.34H106.7v-2.24c0-3-1.21-4-5-4h-1.47v2.43h2c1.44,0,2.07.41,2.07,1.71v2.12H98.67v2.56h10.2a6.35,6.35,0,0,0,3-.68,4.34,4.34,0,0,0,3.4,1.54A4.28,4.28,0,0,0,119.62,147.35Zm-4.41,2.05a2.05,2.05,0,1,1,2-2.05A1.91,1.91,0,0,1,115.21,149.4Z"/><path class="cls-3" d="M131.72,148.94V138.47h-2.43v9.38a4.74,4.74,0,0,1-2.36.53l-1.84-7.78h-2.43l1.8,7.78h-3.1v2.56h5.54A6.42,6.42,0,0,0,131.72,148.94Z"/><path class="cls-3" d="M124.23,153.92a.57.57,0,0,1,.6-.6.73.73,0,0,1,.52.2l.82-.85a2.16,2.16,0,0,0-1.47-.62,1.56,1.56,0,0,0-1.66,1.58,1.46,1.46,0,0,0,.37,1h-.82v1.46h3.71v-1.46h-1C124.58,154.63,124.23,154.33,124.23,153.92Z"/><rect class="cls-3" x="134.73" y="138.47" width="2.43" height="12.47"/><path class="cls-3" d="M158.84,146.36c0-3.16-1.83-4.8-4.34-4.8-2,0-3.75,1-5.78,3.13V138.6h-2.44v9.78h-1.71v2.56h14.27Zm-2.43,2h-7.69v-.79c2.17-2.51,3.79-3.62,5.38-3.62a1.91,1.91,0,0,1,1.8.84,3.67,3.67,0,0,1,.51,2Z"/><path class="cls-3" d="M193.38,140.43a1.37,1.37,0,0,0,0-2.73,1.37,1.37,0,1,0,0,2.73Z"/><path class="cls-3" d="M198.9,150.94l.67-2.2a3.14,3.14,0,0,1-1.69-1.92c-.16-.41-.34-.92-.53-1.55-.74-2.58-1.73-3.71-4.15-3.71a5.82,5.82,0,0,0-3.64,1.3l1.33,1.69a3.88,3.88,0,0,1,2.1-.7c1.42.09,1.66.62,2.2,2.44a5.3,5.3,0,0,0,1.05,2.09H187v-2c0-3.16-1.84-4.8-4.36-4.8-2,0-3.74,1-5.77,3.14v-6.1H174.4v9.78h-4.77v-5a8.87,8.87,0,0,0-3.84-.92c-2.92,0-4.72,1.74-4.72,4.31s1.78,4.2,5,4.2h1.09c-.07,1.42-.82,2.12-2.65,2.12a10.28,10.28,0,0,1-2.75-.44l-.43,2.32a10,10,0,0,0,3.11.48c3,0,4.89-1.35,5.15-4.48Zm-31.71-2.56H165.7c-1.31,0-2.18-.67-2.18-1.83s.88-1.83,2.13-1.83a3.79,3.79,0,0,1,1.54.34Zm17.33,0h-7.69v-.77c2.17-2.53,3.81-3.64,5.4-3.64a1.92,1.92,0,0,1,1.77.82,3.63,3.63,0,0,1,.52,2Z"/><path class="cls-3" d="M212.61,141a1.36,1.36,0,0,0,1.35-1.37,1.36,1.36,0,0,0-2.72,0A1.37,1.37,0,0,0,212.61,141Z"/><path class="cls-3" d="M215.27,146.67a4.38,4.38,0,1,0-4.39,4.44A4.27,4.27,0,0,0,215.27,146.67Zm-4.41,2.07a2.07,2.07,0,1,1,2-2.07A1.92,1.92,0,0,1,210.86,148.74Z"/><path class="cls-3" d="M209.19,141a1.36,1.36,0,0,0,1.33-1.37,1.35,1.35,0,1,0-2.7,0A1.37,1.37,0,0,0,209.19,141Z"/><path class="cls-3" d="M214.71,155.33a12.27,12.27,0,0,0,1.23.09c3,0,4.82-1.57,4.82-5.13v-7.76h-2.43v7.8c0,1.76-.65,2.56-2.48,2.56a6.06,6.06,0,0,1-.68,0Z"/><rect class="cls-3" x="223.71" y="138.47" width="2.43" height="12.47"/><path class="cls-3" d="M236.44,146.14c0-3-1.21-4-5.06-4h-1.47v2.43h2c1.43,0,2.07.41,2.07,1.71v2.12h-5.61v2.56h8Z"/><rect class="cls-3" x="239.14" y="138.47" width="2.43" height="12.47"/><path class="cls-3" d="M242.22,154.63h-1.05c-.68,0-1-.3-1-.71a.57.57,0,0,1,.6-.6.73.73,0,0,1,.51.2l.82-.85a2.12,2.12,0,0,0-1.47-.62,1.56,1.56,0,0,0-1.66,1.58,1.42,1.42,0,0,0,.38,1h-.82v1.46h3.71Z"/><path class="cls-3" d="M249,150.94h1.09c-.06,1.42-.82,2.12-2.65,2.12a10.28,10.28,0,0,1-2.75-.44l-.42,2.32a9.91,9.91,0,0,0,3.11.48,5.46,5.46,0,0,0,3.76-1.23,5,5,0,0,0,1.4-3.93v-6.91a8.91,8.91,0,0,0-3.85-.92c-2.92,0-4.71,1.74-4.71,4.31S245.75,150.94,249,150.94Zm-.44-6.22a3.71,3.71,0,0,1,1.53.34v3.32h-1.48c-1.32,0-2.19-.67-2.19-1.83S247.31,144.72,248.56,144.72Z"/><path class="cls-3" d="M263,141a1.36,1.36,0,0,0,1.34-1.37,1.35,1.35,0,1,0-2.7,0A1.36,1.36,0,0,0,263,141Z"/><path class="cls-3" d="M266.46,141a1.36,1.36,0,0,0,1.35-1.37,1.36,1.36,0,0,0-2.72,0A1.37,1.37,0,0,0,266.46,141Z"/><path class="cls-3" d="M274.47,138.11a1.37,1.37,0,1,0,0,2.73,1.37,1.37,0,0,0,0-2.73Z"/><path class="cls-3" d="M273.3,148a7.18,7.18,0,0,1-2.4.38h-2.35v-5.23a8.44,8.44,0,0,0-3.81-.92c-2.93,0-4.72,1.72-4.72,4.37s1.93,4.34,5.06,4.34h5.84a7.7,7.7,0,0,0,4.8-1.47v-7.21H273.3Zm-7.18.38h-1.47c-1.35,0-2.2-.67-2.2-1.9a1.88,1.88,0,0,1,2.1-1.95,3.43,3.43,0,0,1,1.57.35Z"/><path class="cls-3" d="M286.69,153.4a1.35,1.35,0,1,0-2.7,0,1.35,1.35,0,1,0,2.7,0Z"/><path class="cls-3" d="M288.78,152.05a1.35,1.35,0,0,0-1.37,1.35,1.36,1.36,0,1,0,2.72,0A1.34,1.34,0,0,0,288.78,152.05Z"/><path class="cls-3" d="M314.92,150.94h.1a6.38,6.38,0,0,0,4.8-2V138.47H317.4v9.45a6,6,0,0,1-2.4.46,5.53,5.53,0,0,1-2.39-.46v-9.45h-2.43v9.45a5.5,5.5,0,0,1-2.39.46h-2.22v-2c0-3.16-1.84-4.8-4.35-4.8-2,0-3.75,1-5.78,3.14v-1.87H293v5.55h-2.39a5.53,5.53,0,0,1-2.39-.46v-5.66H285.8v5.66a5.53,5.53,0,0,1-2.39.46,5.88,5.88,0,0,1-2.39-.46v-9.45h-2.43v9.87a1.62,1.62,0,0,0,1,1.71,8,8,0,0,0,3.65.88h.42A7.14,7.14,0,0,0,287,150a7.1,7.1,0,0,0,3.39.94H308a7.13,7.13,0,0,0,3.39-.94,7,7,0,0,0,3.39.94Zm-11.79-2.56h-7.69v-.77c2.17-2.53,3.79-3.64,5.42-3.64a1.89,1.89,0,0,1,1.76.82,3.64,3.64,0,0,1,.51,2Z"/><path class="cls-3" d="M333.88,141a1.36,1.36,0,0,0,1.35-1.37,1.36,1.36,0,0,0-2.71,0A1.36,1.36,0,0,0,333.88,141Z"/><path class="cls-3" d="M330.47,141a1.36,1.36,0,0,0,1.33-1.37,1.35,1.35,0,1,0-2.7,0A1.37,1.37,0,0,0,330.47,141Z"/><path class="cls-3" d="M338.26,153.4a1.35,1.35,0,1,0,2.7,0,1.35,1.35,0,1,0-2.7,0Z"/><path class="cls-3" d="M341.68,153.4a1.36,1.36,0,1,0,1.36-1.35A1.34,1.34,0,0,0,341.68,153.4Z"/><path class="cls-3" d="M338.33,150.94h0a7.68,7.68,0,0,0,4.8-1.47v-7.21h-2.42V148a7.16,7.16,0,0,1-2.39.38H336v-5.23a8.41,8.41,0,0,0-3.81-.92c-2.92,0-4.72,1.72-4.72,4.37s1.93,4.34,5.06,4.34Zm-4.79-2.56h-1.47c-1.35,0-2.2-.67-2.2-1.9a1.88,1.88,0,0,1,2.1-1.95,3.43,3.43,0,0,1,1.57.35Z"/><path class="cls-3" d="M353.31,146.14c0-3-1.21-4-5.06-4h-1.47v2.43h2c1.43,0,2.07.41,2.07,1.71v2.12h-5.61v2.56h8Z"/><path class="cls-3" d="M396,150.94h.13a6.39,6.39,0,0,0,4.8-2V138.47h-2.43v9.45a6,6,0,0,1-2.39.46,5.56,5.56,0,0,1-2.39-.46v-4.36h-2.43V148a2.8,2.8,0,0,1-1.52.43,3.13,3.13,0,0,1-1.52-.41v-3.64h-2.43V148a3,3,0,0,1-1.52.41,2.9,2.9,0,0,1-1.52-.43v-3.62h-2.42v3.59a6.62,6.62,0,0,1-2.4.46h-3.29a4.47,4.47,0,0,0,1.83-3.5c0-2.19-1.75-3.32-4.36-3.32a10.46,10.46,0,0,0-4.48,1l-.41,1.92,2.5,3.86H364v-5a8.87,8.87,0,0,0-3.84-.92c-2.92,0-4.72,1.74-4.72,4.31s1.78,4.2,5,4.2h1.09c-.07,1.42-.82,2.12-2.65,2.12a10.28,10.28,0,0,1-2.75-.44l-.43,2.32a10,10,0,0,0,3.11.48c3,0,4.89-1.35,5.15-4.48h14.16a6.82,6.82,0,0,0,3.42-.88,4.85,4.85,0,0,0,5.57,0,4.68,4.68,0,0,0,2.72.87,5.48,5.48,0,0,0,3-.82,6.75,6.75,0,0,0,3.1.81Zm-34.49-2.56H360c-1.31,0-2.18-.67-2.18-1.83s.88-1.83,2.13-1.83a3.79,3.79,0,0,1,1.54.34ZM372,148l-1.89-3.59a5.2,5.2,0,0,1,2-.46c1.23,0,2,.58,2,1.56A2.91,2.91,0,0,1,372,148Z"/><rect class="cls-3" x="403.95" y="138.47" width="2.43" height="12.47"/><path class="cls-3" d="M417,141a1.36,1.36,0,0,0,1.33-1.37,1.35,1.35,0,1,0-2.7,0A1.37,1.37,0,0,0,417,141Z"/><path class="cls-3" d="M420.44,141a1.36,1.36,0,0,0,1.35-1.37,1.36,1.36,0,0,0-2.71,0A1.36,1.36,0,0,0,420.44,141Z"/><path class="cls-3" d="M434.1,147.25c-.11-2.61-1.11-3.21-4.21-4.13l-1-.28,4.51-3.38-1.23-1.56L426,142.62l.51,1.91,2.19.6c2.55.74,2.91,1,3,2.19v.53a7.38,7.38,0,0,1-2.85.53h-6.27v-5.23a8.44,8.44,0,0,0-3.81-.92c-2.92,0-4.72,1.72-4.72,4.37s1.93,4.34,5.06,4.34h9.48a14.67,14.67,0,0,0,3-.31,8.5,8.5,0,0,0,2.57-.88Zm-14,1.13h-1.47c-1.35,0-2.2-.67-2.2-1.9a1.88,1.88,0,0,1,2.1-1.95,3.43,3.43,0,0,1,1.57.35Z"/><path class="cls-3" d="M452,141.46a1.21,1.21,0,0,0,1.22,1.19,1.2,1.2,0,0,0,0-2.39A1.18,1.18,0,0,0,452,141.46Z"/><path class="cls-3" d="M451.59,140.16a1.21,1.21,0,0,0,0-2.41,1.21,1.21,0,0,0,0,2.41Z"/><path class="cls-3" d="M450.05,142.65a1.2,1.2,0,0,0,0-2.39,1.2,1.2,0,1,0,0,2.39Z"/><path class="cls-3" d="M460.55,150.94h.13a6.36,6.36,0,0,0,4.8-2V138.47h-2.42v9.45a6,6,0,0,1-2.39.46,5.64,5.64,0,0,1-2.4-.46v-4.36h-2.42V148a2.82,2.82,0,0,1-1.52.43,3.1,3.1,0,0,1-1.52-.41v-3.64h-2.43V148a3.07,3.07,0,0,1-1.52.41,2.9,2.9,0,0,1-1.52-.43v-3.62h-2.43v3.59a6.56,6.56,0,0,1-2.39.46,5.29,5.29,0,0,1-2.43-.51v-5.34h-2.42v7.8c0,1.76-.65,2.56-2.48,2.56a6.06,6.06,0,0,1-.68,0l-.47,2.46c.48,0,.89.09,1.23.09,2.93,0,4.74-1.5,4.82-4.9a7.08,7.08,0,0,0,2.41.42h.23a6.73,6.73,0,0,0,3.34-.88,4.74,4.74,0,0,0,2.82.89,4.68,4.68,0,0,0,2.75-.87,4.7,4.7,0,0,0,2.72.87,5.46,5.46,0,0,0,3-.82,6.78,6.78,0,0,0,3.1.81Z"/><rect class="cls-3" x="468.49" y="138.47" width="2.43" height="12.47"/><path class="cls-3" d="M6.68,167.26l-1.22-.33c-1.68-.46-1.94-.66-1.94-1.17,0-.77.7-1.15,1.76-1.15a9.85,9.85,0,0,1,4.12,1.13l1.19-2.18a10.27,10.27,0,0,0-5.08-1.32,6.31,6.31,0,0,0-3.61.94A3.15,3.15,0,0,0,.52,166c.06,2.14,1.35,2.86,4.19,3.56l1.29.33c1.59.38,1.92.63,1.92,1.24,0,.9-.75,1.29-2,1.29A9.83,9.83,0,0,1,1.26,171L0,173.14a10.43,10.43,0,0,0,5.7,1.65c3.19,0,5.17-1.39,5.17-3.85C10.78,168.69,9.45,168,6.68,167.26Z"/><path class="cls-3" d="M17.26,165.72a8.29,8.29,0,0,0-4.15,1.14l.79,1.74a5,5,0,0,1,2.68-.83c1.19,0,1.82.5,1.82,1.46v.16H15.64c-2,0-3.29,1-3.29,2.67s1.2,2.73,3.1,2.73a4.32,4.32,0,0,0,2.95-1.15v1H21V169C21,166.89,19.64,165.72,17.26,165.72Zm1.14,6.75a3.65,3.65,0,0,1-2,.6c-1,0-1.52-.44-1.52-1.21s.56-1.18,1.55-1.18H18.4Z"/><path class="cls-3" d="M29.47,171.79a3.77,3.77,0,0,1-2.27.89A1.5,1.5,0,0,1,25.56,171V165.9H23v5.89a2.81,2.81,0,0,0,3.08,3,5.87,5.87,0,0,0,3.42-1.18v1h2.6V165.9h-2.6Z"/><path class="cls-3" d="M40.8,166.89A3.64,3.64,0,0,0,38,165.72a4.57,4.57,0,0,0,0,9.07,3.65,3.65,0,0,0,2.77-1.18v1h2.6V162.41H40.8Zm0,4.62a2.41,2.41,0,0,1-2.07,1.07,2.19,2.19,0,0,1-2.18-2.32,2.37,2.37,0,0,1,.63-1.66,2,2,0,0,1,1.55-.68A2.41,2.41,0,0,1,40.8,169Z"/><rect class="cls-3" x="45.79" y="165.9" width="2.6" height="8.72"/><path class="cls-3" d="M47.08,162.48a1.25,1.25,0,1,0,0,2.48,1.25,1.25,0,1,0,0-2.48Z"/><polygon class="cls-3" points="64.19 168.6 60.47 162.41 56.83 162.41 56.83 174.62 59.53 174.62 59.53 166.09 63.68 173.09 64.66 173.09 68.81 166.09 68.81 174.62 71.56 174.62 71.56 162.41 67.92 162.41 64.19 168.6"/><path class="cls-3" d="M78.64,165.72a8.26,8.26,0,0,0-4.15,1.14l.78,1.74a5,5,0,0,1,2.69-.83c1.19,0,1.81.5,1.81,1.46v.16H77c-2,0-3.3,1-3.3,2.67s1.21,2.73,3.11,2.73a4.3,4.3,0,0,0,2.94-1.15v1h2.59V169C82.36,166.89,81,165.72,78.64,165.72Zm1.13,6.75a3.6,3.6,0,0,1-2,.6c-1,0-1.51-.44-1.51-1.21s.55-1.18,1.55-1.18h1.93Z"/><path class="cls-3" d="M85.91,162.48a1.25,1.25,0,1,0,0,2.48,1.25,1.25,0,1,0,0-2.48Z"/><rect class="cls-3" x="84.62" y="165.9" width="2.6" height="8.72"/><path class="cls-3" d="M95.64,165.72a5.93,5.93,0,0,0-3.42,1.19v-1H89.63v8.72h2.59v-5.9a3.61,3.61,0,0,1,2.29-.88,1.49,1.49,0,0,1,1.64,1.63v5.15h2.58v-5.91A2.81,2.81,0,0,0,95.64,165.72Z"/><path class="cls-3" d="M105.3,172.65a1.24,1.24,0,0,1-1.32-1.33v-3.4h2.32v-2H104v-2.35H101.4v2.35h-1.28v2h1.28v3.82a2.8,2.8,0,0,0,3,3,5.29,5.29,0,0,0,2.53-.68l-.35-1.79A2.69,2.69,0,0,1,105.3,172.65Z"/><path class="cls-3" d="M112.59,165.72a4.48,4.48,0,0,0-4.64,4.52,4.54,4.54,0,0,0,4.71,4.55,5.55,5.55,0,0,0,3.87-1.5L115.12,172a3.4,3.4,0,0,1-2.3.8,2.09,2.09,0,0,1-2.27-1.85h6.68v-.71A4.44,4.44,0,0,0,112.59,165.72Zm-2.06,3.82a2,2,0,0,1,2.1-1.9,2,2,0,0,1,2.09,1.9Z"/><path class="cls-3" d="M125.09,165.72a5.9,5.9,0,0,0-3.41,1.19v-1h-2.6v8.72h2.6v-5.9a3.61,3.61,0,0,1,2.28-.88,1.49,1.49,0,0,1,1.64,1.63v5.15h2.58v-5.91A2.81,2.81,0,0,0,125.09,165.72Z"/><path class="cls-3" d="M134.82,165.72a8.29,8.29,0,0,0-4.15,1.14l.79,1.74a5,5,0,0,1,2.68-.83c1.19,0,1.82.5,1.82,1.46v.16H133.2c-2,0-3.29,1-3.29,2.67s1.2,2.73,3.1,2.73a4.32,4.32,0,0,0,3-1.15v1h2.58V169C138.54,166.89,137.2,165.72,134.82,165.72Zm1.14,6.75a3.65,3.65,0,0,1-2,.6c-1,0-1.52-.44-1.52-1.21s.56-1.18,1.55-1.18H136Z"/><path class="cls-3" d="M146.7,165.72a5.93,5.93,0,0,0-3.42,1.19v-1h-2.6v8.72h2.6v-5.9a3.61,3.61,0,0,1,2.29-.88,1.49,1.49,0,0,1,1.63,1.63v5.15h2.59v-5.91A2.81,2.81,0,0,0,146.7,165.72Z"/><path class="cls-3" d="M156.32,172.58a2.33,2.33,0,0,1,0-4.66,2.36,2.36,0,0,1,1.84.79l2-1.1a4.77,4.77,0,0,0-3.84-1.89,4.54,4.54,0,1,0,0,9.07,4.91,4.91,0,0,0,3.89-1.93l-2-1.1A2.32,2.32,0,0,1,156.32,172.58Z"/><path class="cls-3" d="M165.93,165.72a4.48,4.48,0,0,0-4.64,4.52,4.54,4.54,0,0,0,4.71,4.55,5.55,5.55,0,0,0,3.87-1.5L168.46,172a3.4,3.4,0,0,1-2.3.8,2.09,2.09,0,0,1-2.27-1.85h6.68v-.71A4.44,4.44,0,0,0,165.93,165.72Zm-2.06,3.82a2,2,0,0,1,2.1-1.9,2,2,0,0,1,2.09,1.9Z"/><path class="cls-3" d="M201.14,167.26l-1.22-.33c-1.67-.46-1.94-.66-1.94-1.17,0-.77.7-1.15,1.77-1.15a9.85,9.85,0,0,1,4.11,1.13l1.19-2.18a10.27,10.27,0,0,0-5.08-1.32,6.31,6.31,0,0,0-3.61.94A3.14,3.14,0,0,0,195,166c0,2.14,1.34,2.86,4.18,3.56l1.29.33c1.59.38,1.92.63,1.92,1.24,0,.9-.75,1.29-2,1.29a9.83,9.83,0,0,1-4.67-1.35l-1.26,2.1a10.45,10.45,0,0,0,5.7,1.65c3.2,0,5.17-1.39,5.17-3.85C205.24,168.69,203.91,168,201.14,167.26Z"/><path class="cls-3" d="M213.57,171.79a3.72,3.72,0,0,1-2.26.89,1.5,1.5,0,0,1-1.64-1.65V165.9h-2.6v5.89a2.82,2.82,0,0,0,3.09,3,5.84,5.84,0,0,0,3.41-1.18v1h2.6V165.9h-2.6Z"/><path class="cls-3" d="M223.9,165.72a3.68,3.68,0,0,0-2.78,1.17v-1h-2.59V178h2.59v-4.41a3.68,3.68,0,0,0,2.78,1.18c2.28,0,4-1.93,4-4.53S226.18,165.72,223.9,165.72Zm-.7,6.86a2.45,2.45,0,0,1-2.08-1.07V169a2.45,2.45,0,0,1,2.08-1.07,2.34,2.34,0,0,1,0,4.66Z"/><path class="cls-3" d="M235.41,165.72a3.68,3.68,0,0,0-2.78,1.17v-1H230V178h2.6v-4.41a3.68,3.68,0,0,0,2.78,1.18c2.28,0,4-1.93,4-4.53S237.69,165.72,235.41,165.72Zm-.7,6.86a2.45,2.45,0,0,1-2.08-1.07V169a2.45,2.45,0,0,1,2.08-1.07,2.34,2.34,0,0,1,0,4.66Z"/><rect class="cls-3" x="241.49" y="162.41" width="2.6" height="12.21"/><path class="cls-3" d="M250.51,171.83l-2.22-5.93h-2.74l3.82,9-.12.21a1.81,1.81,0,0,1-1.66,1.13,4.09,4.09,0,0,1-1.51-.33l-.72,1.74a7.28,7.28,0,0,0,2.6.54c1.69,0,2.88-.88,3.59-2.75l3.75-9.54h-2.7Z"/><path class="cls-3" d="M268.8,164.83a3.63,3.63,0,0,1,2.79,1.38l2.35-1.41a6.29,6.29,0,1,0,0,7.41l-2.35-1.41a3.61,3.61,0,1,1-2.79-6Z"/><path class="cls-3" d="M281.73,165.72a5.93,5.93,0,0,0-3.41,1.19v-4.5h-2.6v12.21h2.6v-5.9a3.61,3.61,0,0,1,2.28-.88,1.49,1.49,0,0,1,1.64,1.63v5.15h2.58v-5.91A2.81,2.81,0,0,0,281.73,165.72Z"/><path class="cls-3" d="M291.46,165.72a8.29,8.29,0,0,0-4.15,1.14l.79,1.74a5,5,0,0,1,2.68-.83c1.19,0,1.82.5,1.82,1.46v.16h-2.76c-2,0-3.29,1-3.29,2.67s1.2,2.73,3.1,2.73a4.32,4.32,0,0,0,3-1.15v1h2.58V169C295.18,166.89,293.84,165.72,291.46,165.72Zm1.14,6.75a3.65,3.65,0,0,1-2,.6c-1,0-1.52-.44-1.52-1.21s.56-1.18,1.55-1.18h1.94Z"/><rect class="cls-3" x="297.44" y="165.9" width="2.6" height="8.72"/><path class="cls-3" d="M298.74,162.48a1.25,1.25,0,1,0,0,2.48,1.25,1.25,0,1,0,0-2.48Z"/><path class="cls-3" d="M308.47,165.72a5.93,5.93,0,0,0-3.42,1.19v-1h-2.6v8.72h2.6v-5.9a3.61,3.61,0,0,1,2.28-.88,1.49,1.49,0,0,1,1.64,1.63v5.15h2.58v-5.91A2.8,2.8,0,0,0,308.47,165.72Z"/><polygon class="cls-3" points="327.09 168.6 323.37 162.41 319.73 162.41 319.73 174.62 322.43 174.62 322.43 166.09 326.58 173.09 327.56 173.09 331.71 166.09 331.71 174.62 334.46 174.62 334.46 162.41 330.82 162.41 327.09 168.6"/><path class="cls-3" d="M341.54,165.72a8.26,8.26,0,0,0-4.15,1.14l.79,1.74a5,5,0,0,1,2.68-.83c1.19,0,1.82.5,1.82,1.46v.16h-2.76c-2,0-3.3,1-3.3,2.67s1.21,2.73,3.11,2.73a4.34,4.34,0,0,0,2.95-1.15v1h2.58V169C345.26,166.89,343.91,165.72,341.54,165.72Zm1.14,6.75a3.65,3.65,0,0,1-2,.6c-1,0-1.51-.44-1.51-1.21s.56-1.18,1.55-1.18h1.94Z"/><path class="cls-3" d="M353.42,165.72a5.93,5.93,0,0,0-3.42,1.19v-1h-2.6v8.72H350v-5.9a3.61,3.61,0,0,1,2.28-.88,1.49,1.49,0,0,1,1.64,1.63v5.15h2.58v-5.91A2.8,2.8,0,0,0,353.42,165.72Z"/><path class="cls-3" d="M363.15,165.72a8.23,8.23,0,0,0-4.15,1.14l.78,1.74a5,5,0,0,1,2.69-.83c1.18,0,1.81.5,1.81,1.46v.16h-2.76c-2,0-3.29,1-3.29,2.67s1.2,2.73,3.1,2.73a4.32,4.32,0,0,0,2.95-1.15v1h2.58V169C366.86,166.89,365.52,165.72,363.15,165.72Zm1.13,6.75a3.65,3.65,0,0,1-2,.6c-1,0-1.52-.44-1.52-1.21s.56-1.18,1.55-1.18h1.94Z"/><path class="cls-3" d="M375.44,166.89a3.67,3.67,0,0,0-2.77-1.17,4.53,4.53,0,0,0,0,9,3.64,3.64,0,0,0,2.77-1.17v.51c0,1.48-1,2.18-2.41,2.18a6.82,6.82,0,0,1-3.4-.87l-.78,1.74a9,9,0,0,0,4.62,1.12,5.09,5.09,0,0,0,3.3-1,3.78,3.78,0,0,0,1.27-3.14V165.9h-2.6Zm0,4.59a2.46,2.46,0,0,1-2.08,1.06,2.32,2.32,0,0,1,0-4.64,2.45,2.45,0,0,1,2.08,1Z"/><path class="cls-3" d="M403.46,165.72a5.12,5.12,0,0,0-3.51,1.33,2.76,2.76,0,0,0-2.56-1.33,4.87,4.87,0,0,0-3.23,1.3V165.9h-2.6v8.72h2.6v-6a3.17,3.17,0,0,1,2.08-.77,1.46,1.46,0,0,1,1.51,1.65v5.15h2.58V169.7a7.59,7.59,0,0,0-.08-1.13,3.38,3.38,0,0,1,2.18-.75,1.45,1.45,0,0,1,1.5,1.65v5.15h2.61v-5.91A2.81,2.81,0,0,0,403.46,165.72Z"/><path class="cls-3" d="M412.94,165.72a4.48,4.48,0,0,0-4.64,4.52,4.53,4.53,0,0,0,4.71,4.55,5.55,5.55,0,0,0,3.87-1.5L415.47,172a3.4,3.4,0,0,1-2.3.8A2.09,2.09,0,0,1,410.9,171h6.68v-.71A4.44,4.44,0,0,0,412.94,165.72Zm-2.06,3.82a2,2,0,0,1,2.1-1.9,2,2,0,0,1,2.09,1.9Z"/><path class="cls-3" d="M384.87,165.72a4.48,4.48,0,0,0-4.64,4.52,4.54,4.54,0,0,0,4.71,4.55,5.55,5.55,0,0,0,3.87-1.5L387.4,172a3.4,3.4,0,0,1-2.3.8,2.09,2.09,0,0,1-2.27-1.85h6.68v-.71A4.44,4.44,0,0,0,384.87,165.72Zm-2.06,3.82a2,2,0,0,1,2.1-1.9,2,2,0,0,1,2.09,1.9Z"/><path class="cls-3" d="M425.44,165.72a5.9,5.9,0,0,0-3.41,1.19v-1h-2.6v8.72H422v-5.9a3.61,3.61,0,0,1,2.28-.88,1.49,1.49,0,0,1,1.64,1.63v5.15h2.58v-5.91A2.81,2.81,0,0,0,425.44,165.72Z"/><path class="cls-3" d="M435.1,172.65a1.24,1.24,0,0,1-1.32-1.33v-3.4h2.32v-2h-2.32v-2.35H431.2v2.35h-1.28v2h1.28v3.82a2.8,2.8,0,0,0,3,3,5.29,5.29,0,0,0,2.53-.68l-.35-1.79A2.69,2.69,0,0,1,435.1,172.65Z"/><path class="cls-3" d="M450.48,164.83a3.62,3.62,0,0,1,2.79,1.38l2.36-1.41a6.29,6.29,0,1,0,0,7.41l-2.36-1.41a3.61,3.61,0,1,1-2.79-6Z"/><path class="cls-3" d="M461.9,165.72a4.55,4.55,0,1,0,4.9,4.54A4.66,4.66,0,0,0,461.9,165.72Zm0,6.86a2.33,2.33,0,1,1,0-4.66,2.29,2.29,0,0,1,2.36,2.34A2.26,2.26,0,0,1,461.88,172.58Z"/><path class="cls-3" d="M469.5,172.26a1.35,1.35,0,0,0-1.39,1.28,1.41,1.41,0,0,0,2.81,0A1.36,1.36,0,0,0,469.5,172.26Z"/><path class="cls-3" d="M188.27,174.9l-1.92,1.67-1.13-1.24a6.47,6.47,0,0,1-4,1.24c-3,0-4.79-1.33-4.79-3.55,0-1.57.89-2.66,3.18-3.85l-.09-.09a3.4,3.4,0,0,1-1.13-2.4,3.61,3.61,0,0,1,3.88-3.42c2,0,3.55,1.31,3.55,3.07,0,1.49-.83,2.42-2.6,3.38l2.05,2.14a11.59,11.59,0,0,0,1.2-2.09l2,.91a14.44,14.44,0,0,1-1.54,2.87Zm-7.17-4.12c-1.4.74-1.83,1.24-1.83,2,0,1,.8,1.59,2,1.59a3.92,3.92,0,0,0,2.3-.77Zm.46-2.79.19.2c1.55-.74,1.83-1.09,1.83-1.81a1.16,1.16,0,0,0-1.31-1.16,1.33,1.33,0,0,0-1.46,1.25A2.56,2.56,0,0,0,181.56,168Z"/></g></g></svg>